<?xml version="1.0" encoding="UTF-8"?>
<svg data-bbox="0 0 150 150" viewBox="0 0 150 150" height="200" width="200" xmlns="http://www.w3.org/2000/svg" data-type="shape">
    <g>
        <path d="M0 75v75h150V0H0v75zm51.9-48.9 15.8 12.1-3.6 8.9C62.1 52 60.3 56 60 56c-.3 0-5.2-3.8-11-8.5-5.8-4.6-10.8-8.4-11.2-8.5-.5 0-.8 21.8-.8 48.5V136H20V14h16.1l15.8 12.1zM130 75v61h-17V87.5c0-26.7-.3-48.5-.7-48.5-.5.1-5.5 3.9-11.3 8.5-5.8 4.7-10.7 8.5-11 8.5-.3 0-2.1-4-4.1-8.9l-3.6-8.9 15.6-12 15.6-12.1h8.3l8.2-.1v61z"/>
    </g>
</svg>
